<svg xmlns="http://www.w3.org/2000/svg" width="131.707" height="58.582" viewBox="0 0 131.707 58.582"><g transform="translate(-300.613 -263.991)"><g transform="translate(302.926 291.261)"><path d="M335.378,378.928a.3.3,0,0,0,.107-.045.127.127,0,0,0,.031-.035.15.15,0,0,0,.01-.025.042.042,0,0,0,0-.029.117.117,0,0,0,0-.039C335.48,378.814,335.431,378.869,335.378,378.928ZM313.4,369.865l-.178-.141a.23.23,0,0,0,.01.043.151.151,0,0,0,.108.113.183.183,0,0,0,.033.008l.029,0v0h.035Zm-1.191-.9c-.055-.051-.111-.1-.164-.151h.012a.01.01,0,0,0-.006,0,.2.2,0,0,0-.027-.017s0,0-.006,0,0,.016,0,.022a.156.156,0,0,0,.055.1l.022.021a.334.334,0,0,0,.1.037l.01,0Zm-.364-.315a.265.265,0,0,0,.008.041l.012-.006Zm-2.418-1.835h-.006l.008.006S309.423,366.818,309.423,366.816Zm-.935-.749h-.01a.051.051,0,0,0,.012.01A.094.094,0,0,0,308.488,366.067Zm2.316,1.821H310.8l.008.006S310.8,367.89,310.8,367.888Zm-2.734-16.316c-.012.035-.021.059-.029.086l.053-.021C308.089,351.619,308.081,351.6,308.071,351.572Z" transform="translate(-308.042 -351.572)" fill="#2f627c"/><path d="M370.514,439.049a.3.3,0,0,1-.106-.045.126.126,0,0,1-.031-.035.15.15,0,0,1-.01-.025.042.042,0,0,1,0-.029.117.117,0,0,1,0-.039C370.411,438.934,370.46,438.99,370.514,439.049Z" transform="translate(-350.956 -411.693)" fill="#2f627c"/><path d="M309.453,398.135a.051.051,0,0,1-.012-.01h.01A.094.094,0,0,1,309.453,398.135Z" transform="translate(-309.005 -383.63)" fill="#2f627c"/><path d="M312.466,400.536v0s-.006,0-.008-.008h.006S312.466,400.534,312.466,400.536Z" transform="translate(-311.083 -385.286)" fill="#2f627c"/><path d="M316.9,403.979l-.008-.006h.006S316.9,403.977,316.9,403.979Z" transform="translate(-314.137 -387.657)" fill="#2f627c"/><path d="M320.265,406.459l-.012.006a.271.271,0,0,1-.008-.041Z" transform="translate(-316.445 -389.345)" fill="#2f627c"/><path d="M320.855,406.9h-.014c-.006-.008-.012-.012-.018-.021a.2.2,0,0,1,.027.017A.01.01,0,0,1,320.855,406.9Z" transform="translate(-316.843 -389.661)" fill="#2f627c"/><path d="M321.4,407.438l-.01,0h.008Z" transform="translate(-317.232 -390.042)" fill="#2f627c"/><path d="M324.691,409.9l-.014.012a.23.23,0,0,1-.01-.043Z" transform="translate(-319.49 -391.716)" fill="#2f627c"/><path d="M325.275,410.347h-.012l-.025-.026Z" transform="translate(-319.884 -392.028)" fill="#2f627c"/><path d="M312.466,400.536l-.008-.006h.006S312.466,400.534,312.466,400.536Z" transform="translate(-311.083 -385.286)" fill="#2f627c"/><path d="M316.9,403.979l-.008-.006h.006S316.9,403.977,316.9,403.979Z" transform="translate(-314.137 -387.657)" fill="#2f627c"/><path d="M321.4,407.438l-.01,0h.008Z" transform="translate(-317.232 -390.042)" fill="#2f627c"/><path d="M316.9,403.979l-.008-.006h.006S316.9,403.977,316.9,403.979Z" transform="translate(-314.137 -387.657)" fill="#2f627c"/><path d="M309.453,398.135a.051.051,0,0,1-.012-.01h.01A.094.094,0,0,1,309.453,398.135Z" transform="translate(-309.005 -383.63)" fill="#2f627c"/><path d="M312.466,400.536v0s-.006,0-.008-.008h.006S312.466,400.534,312.466,400.536Z" transform="translate(-311.083 -385.286)" fill="#2f627c"/><path d="M309.453,398.135a.051.051,0,0,1-.012-.01h.01A.094.094,0,0,1,309.453,398.135Z" transform="translate(-309.005 -383.63)" fill="#2f627c"/><path d="M320.265,406.459l-.012.006a.271.271,0,0,1-.008-.041Z" transform="translate(-316.445 -389.345)" fill="#2f627c"/><path d="M320.841,406.9h-.014a.064.064,0,0,1-.02,0c0-.006,0-.014,0-.022s0,0,.006,0a.2.2,0,0,1,.027.017S320.839,406.893,320.841,406.9Z" transform="translate(-316.829 -389.652)" fill="#2f627c"/><path d="M320.994,407.049l-.01,0a.333.333,0,0,1-.1-.037l-.022-.021a.156.156,0,0,1-.055-.1c0-.006,0-.014,0-.022s0,0,.006,0,.012.012.018.021h0c.053.051.108.1.164.151Z" transform="translate(-316.829 -389.652)" fill="#2f627c"/><path d="M324.881,410.035h-.035a.116.116,0,0,1-.029,0,.183.183,0,0,1-.033-.008.151.151,0,0,1-.108-.113.23.23,0,0,1-.01-.043l.178.141Z" transform="translate(-319.49 -391.716)" fill="#2f627c"/><path d="M325.24,410.347v0a.111.111,0,0,1,0-.025l.025.026Z" transform="translate(-319.884 -392.028)" fill="#2f627c"/><path d="M308.1,351.637l-.053.021c.008-.027.017-.051.029-.086C308.081,351.6,308.089,351.619,308.1,351.637Z" transform="translate(-308.042 -351.572)" fill="#2f627c"/></g><g transform="translate(360.633 263.991)"><path d="M516.86,264.751a2.179,2.179,0,0,0-1.591-.649,2.152,2.152,0,0,0-1.567.649,2.113,2.113,0,0,0-.659,1.564,2.22,2.22,0,0,0,2.227,2.214,2.179,2.179,0,0,0,1.591-.649,2.185,2.185,0,0,0,0-3.129Zm-5.955-.026a2.216,2.216,0,1,0,.649,1.565A2.152,2.152,0,0,0,510.905,264.725Z" transform="translate(-502.829 -264.05)" fill="#5d5c5c"/><path d="M578.57,264.648a2.251,2.251,0,0,0-3.179,0,2.214,2.214,0,0,0,0,3.147,2.261,2.261,0,0,0,3.179-.008,2.185,2.185,0,0,0,0-3.14Zm-5.984.018a2.228,2.228,0,0,0-3.8,1.578,2.11,2.11,0,0,0,.652,1.557,2.261,2.261,0,0,0,3.161,0,2.2,2.2,0,0,0-.008-3.134Z" transform="translate(-545.301 -263.991)" fill="#5d5c5c"/><path d="M698.55,281.247a2.251,2.251,0,0,0-3.179,0,2.223,2.223,0,0,0,0,3.155,2.25,2.25,0,0,0,3.844-1.586A2.127,2.127,0,0,0,698.55,281.247Zm-5.928,0a2.223,2.223,0,1,0,.657,1.57A2.16,2.16,0,0,0,692.622,281.247Z" transform="translate(-627.952 -275.422)" fill="#5d5c5c"/><path d="M559.3,286.517v1.459l1.3-.4v3.1H544.378q-2.24-6.815-5.949-6.815a3.621,3.621,0,0,0-3.541,2.678l1.868,3.287h1.052c.15-1.076.567-1.617,1.251-1.617q1.369,0,2.725,2.467H527.542V279.573q-5.675,1.67-7.49,3.274a4.526,4.526,0,0,0-1.818,3.34q0,2.913,3.673,2.915h1.554v1.565H512.892v.013h-4.738V279.652q-5.545,1.563-7.464,3.253a4.609,4.609,0,0,0-1.923,3.269,2.651,2.651,0,0,0,.942,2.214,3.6,3.6,0,0,0,2.3.741h2.105v5.488q0,.808-1.224,1.85a3.712,3.712,0,0,1-1.7,1.039,3.466,3.466,0,0,1-1.216-.736,12.378,12.378,0,0,1-1.417-1.206,1.464,1.464,0,0,1-.446-1.026v-4.15h-1.053l-3.673,4.044-.013.688h1.053q.012,2.331,2.994,4.459t3.717,2.129a7.445,7.445,0,0,0,3.259-1.6,13.153,13.153,0,0,0,3.034-2.617,4.079,4.079,0,0,0,.726-2.367h5.079v-.013H527.12v.013H543.9c.185.467.364.913.541,1.332s.419.628.736.628c.43,0,.646-.258.646-.781a3.877,3.877,0,0,0-.066-.451,4.982,4.982,0,0,1-.105-.728H565.03V284.755Zm-55.191-.4H503.4c-.823,0-1.238-.245-1.238-.731q0-1.112,1.95-1.683Zm19.376-.055h-.776c-.792,0-1.185-.256-1.185-.768q0-.966,1.96-1.631Z" transform="translate(-493.371 -274.721)" fill="#5d5c5c"/></g><g transform="translate(360.604 295.549)"><path d="M496.684,367.17h-3.4v-1.237h8.286v1.237h-3.421V377.2h-1.461Z" transform="translate(-493.28 -365.749)" fill="#5d5c5c"/><path d="M519.826,373.657l-1.163,3.544h-1.495l3.8-11.269h1.744l3.819,11.269h-1.544l-1.2-3.544Zm3.67-1.137-1.1-3.244c-.249-.735-.415-1.4-.581-2.056h-.033c-.166.669-.349,1.354-.565,2.04l-1.1,3.26Z" transform="translate(-509.731 -365.749)" fill="#5d5c5c"/><path d="M553.971,365.933v4.715h5.414v-4.715h1.461V377.2h-1.461v-5.283h-5.414V377.2h-1.445V365.933Z" transform="translate(-534.078 -365.749)" fill="#5d5c5c"/><path d="M587.232,373.657,586.07,377.2h-1.495l3.8-11.269h1.744l3.82,11.269H592.4l-1.2-3.544Zm3.67-1.137-1.1-3.244c-.249-.735-.415-1.4-.581-2.056h-.033c-.166.669-.348,1.354-.564,2.04l-1.1,3.26Z" transform="translate(-556.148 -365.749)" fill="#5d5c5c"/><path d="M626.9,378.451c-1.511-.4-2.989-.853-4.284-1.3a2.127,2.127,0,0,0-.681-.167c-2.657-.1-4.932-2.073-4.932-5.7,0-3.611,2.192-5.935,5.215-5.935,3.039,0,5.015,2.374,5.015,5.7,0,2.892-1.328,4.748-3.188,5.4v.067c1.113.284,2.325.551,3.272.719Zm-1.2-7.34c0-2.257-1.162-4.581-3.537-4.581-2.441,0-3.637,2.274-3.62,4.715-.016,2.391,1.3,4.548,3.554,4.548C624.4,375.792,625.7,373.686,625.7,371.111Z" transform="translate(-578.476 -365.343)" fill="#5d5c5c"/><path d="M663.969,371.044c0,3.879-2.341,5.935-5.2,5.935-2.956,0-5.032-2.307-5.032-5.718,0-3.578,2.209-5.918,5.2-5.918C661.993,365.343,663.969,367.7,663.969,371.044Zm-8.685.184c0,2.408,1.3,4.564,3.57,4.564,2.292,0,3.587-2.123,3.587-4.682,0-2.24-1.163-4.581-3.57-4.581C656.479,366.53,655.283,368.753,655.283,371.228Z" transform="translate(-603.776 -365.343)" fill="#5d5c5c"/><path d="M700.379,378.451c-1.511-.4-2.989-.853-4.284-1.3a2.127,2.127,0,0,0-.681-.167c-2.657-.1-4.932-2.073-4.932-5.7,0-3.611,2.192-5.935,5.215-5.935,3.039,0,5.015,2.374,5.015,5.7,0,2.892-1.328,4.748-3.188,5.4v.067c1.113.284,2.325.551,3.272.719Zm-1.2-7.34c0-2.257-1.162-4.581-3.537-4.581-2.441,0-3.637,2.274-3.62,4.715-.016,2.391,1.3,4.548,3.554,4.548C697.888,375.792,699.184,373.686,699.184,371.111Z" transform="translate(-629.079 -365.343)" fill="#5d5c5c"/></g><path d="M427.462,351.739V319.688a.973.973,0,0,1,.973-.973h9.556a.942.942,0,0,1,.942.942v22.4a1.915,1.915,0,0,1-.756,1.525Z" transform="translate(-87.352 -37.684)" fill="#407590"/><path d="M391.978,323.242V264.963h21.129a1.391,1.391,0,0,1,1.391,1.391v8.485a1.428,1.428,0,0,1-1.428,1.428H399.111a1.559,1.559,0,0,0-1.559,1.559v41.118Z" transform="translate(-62.917 -0.669)" fill="#407590"/><path d="M312.085,351.367V319.316a.973.973,0,0,0-.973-.973h-9.556a.942.942,0,0,0-.942.942v22.4a1.917,1.917,0,0,0,.756,1.525Z" transform="translate(0 -37.428)" fill="#407590"/><path d="M323.133,322.869V264.59H302a1.391,1.391,0,0,0-1.391,1.391v8.485a1.428,1.428,0,0,0,1.428,1.428H316a1.56,1.56,0,0,1,1.559,1.56v41.118Z" transform="translate(0 -0.412)" fill="#407590"/></g></svg>